<svg width="24" height="24" viewBox="0 0 24 24" fill="none" xmlns="http://www.w3.org/2000/svg">
<path d="M19 2C20.6569 2 22 3.34315 22 5V19C22 20.6569 20.6569 22 19 22H5C3.34315 22 2 20.6569 2 19V5C2 3.34315 3.34315 2 5 2H19ZM5 4C4.44772 4 4 4.44772 4 5V19C4 19.5523 4.44771 20 5 20H19C19.5523 20 20 19.5523 20 19V5C20 4.44771 19.5523 4 19 4H5ZM9.91016 16.6377H16.6846V18.0459H8.16699V14.4023H9.91016V16.6377ZM16.2402 9.6377H17.9219V11.0664H16.2402V15.1201H14.4971V5.83008H16.2402V9.6377ZM10.0674 8.94043C10.6598 8.94043 11.1885 9.04297 11.6533 9.24805C12.1182 9.44857 12.4805 9.73112 12.7402 10.0957C13 10.4603 13.1299 10.8796 13.1299 11.3535C13.1299 11.8229 13 12.2376 12.7402 12.5977C12.4805 12.9577 12.1182 13.238 11.6533 13.4385C11.1885 13.6344 10.6598 13.7324 10.0674 13.7324C9.46582 13.7324 8.93034 13.6344 8.46094 13.4385C7.99609 13.238 7.63151 12.9577 7.36719 12.5977C7.10742 12.2376 6.97754 11.8229 6.97754 11.3535C6.97754 10.8796 7.10742 10.4603 7.36719 10.0957C7.63151 9.73112 7.99609 9.44857 8.46094 9.24805C8.93034 9.04297 9.46582 8.94043 10.0674 8.94043ZM10.0674 10.2803C9.78483 10.2803 9.53874 10.3213 9.3291 10.4033C9.11947 10.4854 8.95768 10.6084 8.84375 10.7725C8.72982 10.932 8.67285 11.1257 8.67285 11.3535C8.67285 11.5768 8.72982 11.7682 8.84375 11.9277C8.95768 12.0827 9.11947 12.2012 9.3291 12.2832C9.53874 12.3652 9.78483 12.4062 10.0674 12.4062C10.3454 12.4062 10.5892 12.3652 10.7988 12.2832C11.013 12.2012 11.1794 12.0827 11.2979 11.9277C11.4163 11.7682 11.4756 11.5768 11.4756 11.3535C11.4756 11.1257 11.4163 10.932 11.2979 10.7725C11.1794 10.6084 11.013 10.4854 10.7988 10.4033C10.5892 10.3213 10.3454 10.2803 10.0674 10.2803ZM10.9355 7.12891H13.752V8.50293H6.3623V7.12891H9.19238V5.80957H10.9355V7.12891Z" fill="currentColor"/>
</svg>
